<svg id="Logo" xmlns="http://www.w3.org/2000/svg" width="180.93" height="63.849" viewBox="0 0 180.93 63.849">
  <path id="Path_45644" data-name="Path 45644" d="M48.65,63.849l14.7-11.732h28.84l14.7,11.732L93.464,28.081,82.917,0H72.653L83.2,28.081H93.464l-7.9,6.3,6.628,17.736-14.412-11.5-14.429,11.5,6.628-17.736-7.914-6.3H72.349l5.417-14.422H67.5L62.068,28.081H46.541L58.5,37.613ZM20.2,53.067a20.14,20.14,0,0,0,14.284-5.921v4.929H53.039l3.616-9.622H44.109V13.586H34.488v4.989A20.2,20.2,0,1,0,20.2,53.067ZM34.488,18.575V47.146l-6.8-6.8a10.584,10.584,0,1,1,0-14.966ZM103.2,43.457a25.644,25.644,0,0,1-4.609-1.9l4.062,10.808a35.97,35.97,0,0,0,7.262.724,23.409,23.409,0,0,0,9.625-1.728,13.27,13.27,0,0,0,5.74-4.58q.334-.5.61-1.01V52.09h9.621V37.642h9.62V52.075h9.622V13.586h-9.622V28.02h-9.62V13.611h-9.621V35.264a9.6,9.6,0,0,0-3.058-3.1,18.888,18.888,0,0,0-4.311-2,44.242,44.242,0,0,0-4.717-1.249q-2.368-.487-4.33-.963a10.719,10.719,0,0,1-3.164-1.231,2.3,2.3,0,0,1-1.2-2.032,2.754,2.754,0,0,1,.61-1.739,4.162,4.162,0,0,1,2-1.251,11.67,11.67,0,0,1,3.659-.471,20.4,20.4,0,0,1,5.3.731,25.827,25.827,0,0,1,5.511,2.227l3.362-8.122a23,23,0,0,0-6.585-2.556,33.311,33.311,0,0,0-7.491-.851,23.605,23.605,0,0,0-9.6,1.709,13.079,13.079,0,0,0-5.742,4.561,11.1,11.1,0,0,0-1.909,6.308,10.073,10.073,0,0,0,1.2,5.161,9.639,9.639,0,0,0,3.164,3.3,18.814,18.814,0,0,0,4.33,2.021,46.513,46.513,0,0,0,4.717,1.268q2.349.5,4.31,1a10.834,10.834,0,0,1,3.164,1.278,2.378,2.378,0,0,1,1.2,2.089,2.408,2.408,0,0,1-.639,1.657,4.2,4.2,0,0,1-2.007,1.11,13.676,13.676,0,0,1-3.674.4A22.934,22.934,0,0,1,103.2,43.457Z" fill="#fff" fill-rule="evenodd"/>
  <path id="Path_45645" data-name="Path 45645" d="M146.282,2.393H125.193V23.482h21.089Z" transform="translate(34.648 0.662)" fill="#fffe00"/>
  <path id="Path_45646" data-name="Path 45646" d="M137.379,9.11h-2.006V6.151h5.953V17.787h-3.948Zm-6.99,0h-2.007V6.151h5.953V17.787h-3.946Z" transform="translate(35.53 1.702)" fill-rule="evenodd"/>
</svg>
